<svg t="1627426796105" class="icon" viewBox="0 0 1218 1024" version="1.1" xmlns="http://www.w3.org/2000/svg" p-id="2177" width="48" height="48"><path d="M195.481701 825.479723h830.544016c22.282888 0 40.514342-18.231454 40.514342-40.514342V113.440158c0-31.398615-19.244313-57.732938-49.630069-67.861523C965.254204 28.36004 863.968348 0 782.939664 0c-60.771513 0-119.51731 15.192878-172.185955 44.565776-52.668645-28.36004-111.414441-43.552918-172.185954-44.565776-81.028684 0-181.301682 28.36004-233.970327 45.578635-29.372898 9.115727-49.630069 36.462908-49.630069 67.861523v671.525223c0 22.282888 18.231454 40.514342 40.514342 40.514342zM773.823937 709.000989c53.681503 0 139.774481 21.27003 193.455984 35.45005H648.229476c37.475767-21.27003 81.028684-34.437191 125.594461-35.45005z m-199.533136 35.45005H255.240356C312.973294 729.25816 398.053412 709.000989 448.69634 709.000989c43.552918 1.012859 87.105836 13.167161 125.594461 35.45005zM782.939664 81.028684c68.874382 0 160.031652 26.334322 202.571711 39.501484v544.917903c-57.732938-15.192878-150.915925-37.475767-212.700297-37.475766h-2.025717c-41.527201 1.012859-82.041543 10.128586-120.530168 25.321464V114.453017C691.782394 92.170129 737.361029 81.028684 782.939664 81.028684z m-546.94362 39.501484c42.540059-13.167161 134.710188-39.501484 202.571711-39.501484 46.591494 0 91.15727 11.141444 131.671612 33.424333v538.840752c-38.488625-15.192878-79.002967-23.295747-120.530168-25.321464h-1.012859c-61.784372 0-154.967359 22.282888-212.700296 37.475766V120.530168z" p-id="2178"></path><path d="M1177.9545 351.461919c-22.282888 0-40.514342 18.231454-40.514342 40.514342V901.444115c0 22.282888-18.231454 40.514342-40.514342 40.514342H121.543027c-22.282888 0-40.514342-18.231454-40.514343-40.514342V391.976261c0-22.282888-18.231454-40.514342-40.514342-40.514342s-40.514342 18.231454-40.514342 40.514342V901.444115c0 66.848665 54.694362 121.543027 121.543027 121.543026h975.382789c66.848665 0 121.543027-54.694362 121.543027-121.543026V391.976261c0-22.282888-18.231454-40.514342-40.514343-40.514342z" p-id="2179"></path></svg>
